<svg xmlns="http://www.w3.org/2000/svg" viewBox="0 0 512 512">
  <defs>
    <linearGradient id="grad" x1="0%" y1="0%" x2="100%" y2="100%">
      <stop offset="0%" style="stop-color:#6366f1;stop-opacity:1" />
      <stop offset="100%" style="stop-color:#a855f7;stop-opacity:1" />
    </linearGradient>
  </defs>
  <rect width="512" height="512" rx="100" fill="#FBF8F3" />
  <path d="M140 100H340C373.137 100 400 126.863 400 160V380C400 413.137 373.137 440 340 440H140C106.863 440 80 413.137 80 380V160C80 126.863 106.863 100 140 100Z" fill="url(#grad)" />
  <path d="M140 100C106.863 100 80 126.863 80 160V380C80 413.137 106.863 440 140 440V100Z" fill="#4f46e5" opacity="0.2" />
  <rect x="180" y="180" width="160" height="20" rx="10" fill="white" opacity="0.8" />
  <rect x="180" y="240" width="160" height="20" rx="10" fill="white" opacity="0.8" />
  <rect x="180" y="300" width="100" height="20" rx="10" fill="white" opacity="0.8" />
  <circle cx="260" cy="260" r="60" fill="none" stroke="white" stroke-width="20" opacity="0.1" />
</svg>